HIERARCHY
ROOT Hips
{
    OFFSET 0.000000 0.000000 0.000000
    CHANNELS 6 Xposition Yposition Zposition Zrotation Xrotation Yrotation
    JOINT Spine
    {
        OFFSET -0.000000 7.236184 0.000000
        CHANNELS 3 Zrotation Xrotation Yrotation
        JOINT Spine1
        {
            OFFSET -0.000000 20.420147 0.000000
            CHANNELS 3 Zrotation Xrotation Yrotation
            JOINT Neck
            {
                OFFSET -0.000000 20.336288 1.848754
                CHANNELS 3 Zrotation Xrotation Yrotation
                JOINT Head
                {
                    OFFSET -0.000000 12.354461 -1.764923
                    CHANNELS 3 Zrotation Xrotation Yrotation
                    End Site
                    {
                        OFFSET -0.000000 22.061537 0.000000
                    }
                }
            }
            JOINT LeftShoulder
            {
                OFFSET 3.573296 18.396038 -0.314103
                CHANNELS 3 Zrotation Xrotation Yrotation
                JOINT LeftArm
                {
                    OFFSET 10.880760 0.000000 0.000000
                    CHANNELS 3 Zrotation Xrotation Yrotation
                    JOINT LeftForeArm
                    {
                        OFFSET 27.185530 0.000000 0.000000
                        CHANNELS 3 Zrotation Xrotation Yrotation
                        JOINT LeftHand
                        {
                            OFFSET 27.825975 0.000000 0.000000
                            CHANNELS 3 Zrotation Xrotation Yrotation
                            End Site
                            {
                                OFFSET 13.236923 0.000000 0.000000
                            }
                        }
                    }
                }
            }
            JOINT RightShoulder
            {
                OFFSET -3.474926 18.396038 -0.314103
                CHANNELS 3 Zrotation Xrotation Yrotation
                JOINT RightArm
                {
                    OFFSET -10.880760 0.000000 0.000000
                    CHANNELS 3 Zrotation Xrotation Yrotation
                    JOINT RightForeArm
                    {
                        OFFSET -27.185530 0.000000 0.000000
                        CHANNELS 3 Zrotation Xrotation Yrotation
                        JOINT RightHand
                        {
                            OFFSET -27.825975 0.000000 0.000000
                            CHANNELS 3 Zrotation Xrotation Yrotation
                            End Site
                            {
                                OFFSET -13.236923 0.000000 0.000000
                            }
                        }
                    }
                }
            }
        }
    }
    JOINT LeftUpLeg
    {
        OFFSET 8.824615 0.000000 0.000000
        CHANNELS 3 Zrotation Xrotation Yrotation
        JOINT LeftLeg
        {
            OFFSET -0.000000 -35.111282 0.000000
            CHANNELS 3 Zrotation Xrotation Yrotation
            JOINT LeftFoot
            {
                OFFSET -0.000000 -42.324711 0.000000
                CHANNELS 3 Zrotation Xrotation Yrotation
                JOINT LeftToeBase
                {
                    OFFSET -0.000000 -5.735999 13.236923
                    CHANNELS 3 Zrotation Xrotation Yrotation
                    End Site
                    {
                        OFFSET -0.000000 0.000000 3.529846
                    }
                }
            }
        }
    }
    JOINT RightUpLeg
    {
        OFFSET -8.824615 0.000000 0.000000
        CHANNELS 3 Zrotation Xrotation Yrotation
        JOINT RightLeg
        {
            OFFSET -0.000000 -35.111282 0.000000
            CHANNELS 3 Zrotation Xrotation Yrotation
            JOINT RightFoot
            {
                OFFSET -0.000000 -42.324711 0.000000
                CHANNELS 3 Zrotation Xrotation Yrotation
                JOINT RightToeBase
                {
                    OFFSET -0.000000 -5.735999 13.236923
                    CHANNELS 3 Zrotation Xrotation Yrotation
                    End Site
                    {
                        OFFSET -0.000000 0.000000 3.529846
                    }
                }
            }
        }
    }
}
MOTION
Frames:    10
Frame Time:    0.008333
6.890643    84.212196    106.612030    2.634840    -12.026285    -165.162949    0.051769    -15.408381    -0.953504    2.701777    10.798819    -1.215920    1.616365    16.505886    2.657368    0.774285    -41.792473    3.149079    -2.147789    16.102667    -1.274162    -46.134312    38.775200    -41.914894    0.700124    1.845041    -17.441273    -16.363600    0.088008    12.913797    4.927053    19.733137    -4.814492    45.161900    48.802116    29.779406    -0.611650    -18.625610    20.744001    -15.507545    -17.603144    -7.069549    9.692095    -23.998840    1.555532    -2.350710    16.013733    21.316969    -6.603300    1.406634    -15.129946    -0.683188    0.310584    0.756867    0.670963    -5.677284    1.204264    2.518582    0.603135    -3.060603    -6.278546    -5.521993    -12.996606    -1.813231    0.124773    1.960789    
6.872703    84.211800    106.617180    2.703037    -12.065807    -164.951004    0.030076    -15.410313    -0.966115    2.717639    10.805271    -1.227273    1.569476    16.434708    2.573607    0.784422    -41.887085    3.066590    -2.167306    16.068689    -1.230598    -46.319881    38.654369    -41.773354    0.935136    1.558790    -17.797829    -16.389576    -0.127724    12.676378    4.962670    19.795486    -4.786655    45.205956    48.649612    29.756556    -0.563148    -18.597227    20.464954    -15.539618    -17.580969    -7.081185    9.608762    -24.256691    1.724041    -2.475332    16.208910    21.926937    -6.403881    1.495367    -14.934985    -0.616735    0.161413    0.683430    0.708550    -5.706830    1.086139    2.498338    0.589752    -3.111887    -6.282625    -5.511574    -13.041180    -1.804536    0.107312    1.951433    
6.854685    84.211014    106.622353    2.773029    -12.104956    -164.735199    0.009596    -15.412742    -0.978372    2.733209    10.811870    -1.238370    1.522102    16.363531    2.488005    0.795821    -41.981155    2.982919    -2.185987    16.036457    -1.187296    -46.494904    38.540115    -41.638287    1.166008    1.271404    -18.161045    -16.386269    -0.339392    12.432675    4.997850    19.857073    -4.757329    45.247944    48.495636    29.736273    -0.510894    -18.572186    20.184010    -15.566986    -17.562382    -7.096323    9.523721    -24.515404    1.890183    -2.598040    16.405912    22.540928    -6.203598    1.573418    -14.740183    -0.553235    0.034647    0.613203    0.746907    -5.736690    0.966360    2.478580    0.576613    -3.166586    -6.286233    -5.501379    -13.084693    -1.796355    0.089601    1.942634    
6.836709    84.209534    106.627510    2.845318    -12.143082    -164.515030    -0.008596    -15.416270    -0.989782    2.748131    10.818748    -1.248930    1.474331    16.292807    2.400344    0.810164    -42.072815    2.898644    -2.202724    16.008188    -1.144281    -46.649979    38.440063    -41.516861    1.392987    0.988942    -18.527193    -16.320467    -0.536673    12.177268    5.032452    19.916920    -4.726069    45.284946    48.339542    29.721867    -0.452815    -18.553886    19.901913    -15.584743    -17.551048    -7.117764    9.437783    -24.772861    2.051833    -2.717301    16.601860    23.153191    -6.003569    1.638670    -14.551729    -0.495121    -0.071799    0.548895    0.786293    -5.766767    0.845141    2.459866    0.564503    -3.226616    -6.289039    -5.492006    -13.126232    -1.789142    0.072808    1.934878    
6.818484    84.207085    106.632759    2.921600    -12.180511    -164.285919    -0.024422    -15.421248    -1.000398    2.762724    10.825846    -1.258924    1.425284    16.221720    2.308679    0.829055    -42.162487    2.812526    -2.217290    15.984889    -1.100477    -46.783943    38.356178    -41.410305    1.620169    0.711431    -18.899521    -16.163767    -0.714965    11.901091    5.066698    19.974840    -4.692171    45.315315    48.177681    29.715797    -0.385121    -18.545696    19.614199    -15.588722    -17.550674    -7.149443    9.349830    -25.032619    2.210030    -2.834798    16.798336    23.770975    -5.800849    1.692030    -14.369646    -0.442815    -0.162836    0.490989    0.827473    -5.797622    0.720155    2.442433    0.553742    -3.293040    -6.291023    -5.483768    -13.167564    -1.783442    0.056774    1.928755    
6.799899    84.203430    106.638062    3.002667    -12.217064    -164.045959    -0.037798    -15.427838    -1.010083    2.777272    10.832695    -1.268357    1.374928    16.150736    2.212174    0.852890    -42.250130    2.724000    -2.229908    15.966206    -1.055546    -46.898788    38.289433    -41.316452    1.848122    0.441844    -19.277077    -15.891860    -0.868737    11.598232    5.101264    20.030481    -4.655803    45.335690    48.008076    29.721458    -0.304475    -18.552504    19.319668    -15.574900    -17.566328    -7.196064    9.259820    -25.295202    2.364091    -2.951137    16.995134    24.392025    -5.595457    1.734462    -14.191930    -0.396928    -0.241551    0.440172    0.870818    -5.829433    0.590292    2.426509    0.545001    -3.364141    -6.292573    -5.477268    -13.211684    -1.779424    0.042083    1.924450    
6.780862    84.198517    106.643272    3.088675    -12.252195    -163.794647    -0.048934    -15.435871    -1.018728    2.792138    10.839004    -1.277084    1.323010    16.079908    2.110470    0.882267    -42.334904    2.632913    -2.240861    15.950386    -1.009124    -47.000465    38.238216    -41.230026    2.074459    0.183520    -19.657591    -15.484722    -0.993501    11.264360    5.136675    20.083059    -4.617952    45.342052    47.829849    29.742762    -0.207795    -18.580250    19.018276    -15.539127    -17.603949    -7.262696    9.167787    -25.559752    2.513387    -3.066624    17.191576    25.010506    -5.388490    1.766910    -14.014610    -0.358584    -0.311595    0.397701    0.916633    -5.862117    0.454624    2.411883    0.539402    -3.437510    -6.293356    -5.473637    -13.260944    -1.777409    0.028844    1.922305    
6.761012    84.192375    106.648170    3.180054    -12.285550    -163.529785    -0.058465    -15.445094    -1.026053    2.807632    10.844632    -1.284714    1.268863    16.009315    2.002125    0.917852    -42.417549    2.538178    -2.250627    15.935226    -0.960318    -47.098358    38.199005    -41.142918    2.297971    -0.064627    -20.042738    -14.920701    -1.088902    10.891561    5.173901    20.132603    -4.578475    45.331680    47.639160    29.782438    -0.090836    -18.636301    18.707668    -15.477267    -17.670879    -7.356091    9.072648    -25.827345    2.659394    -3.183086    17.388622    25.627590    -5.179008    1.790027    -13.831020    -0.328426    -0.376497    0.364296    0.965236    -5.895390    0.311108    2.398162    0.537546    -3.510903    -6.293604    -5.473513    -13.318022    -1.777217    0.017017    1.922129    
6.740232    84.185341    106.652260    3.274942    -12.315799    -163.254837    -0.067185    -15.455061    -1.031268    2.823586    10.850119    -1.290332    1.212804    15.939693    1.887640    0.959277    -42.497219    2.440125    -2.259126    15.919668    -0.908285    -47.200413    38.167599    -41.049366    2.511622    -0.300976    -20.427738    -14.186658    -1.155947    10.478018    5.212854    20.178596    -4.537640    45.302570    47.435135    29.842936    0.048532    -18.728636    18.390970    -15.386539    -17.774794    -7.482501    8.974431    -26.093372    2.802050    -3.299708    17.583504    26.235888    -4.969808    1.803689    -13.639565    -0.307136    -0.437411    0.340719    1.015960    -5.928040    0.160320    2.384594    0.540516    -3.583372    -6.292789    -5.477969    -13.381005    -1.778532    0.006195    1.923579    
6.718075    84.177795    106.654953    3.372050    -12.342134    -162.970596    -0.076437    -15.465505    -1.033341    2.839967    10.856226    -1.292925    1.154222    15.871355    1.766120    1.007000    -42.574547    2.338097    -2.267106    15.903308    -0.851173    -47.314903    38.138577    -40.942986    2.709391    -0.530474    -20.812891    -13.262772    -1.200649    10.017344    5.253965    20.221615    -4.494698    45.253151    47.213413    29.926329    0.213647    -18.867098    18.068113    -15.263242    -17.925247    -7.649982    8.871628    -26.356041    2.944055    -3.417149    17.775475    26.838331    -4.760752    1.808544    -13.438182    -0.294911    -0.496729    0.327192    1.068150    -5.959079    0.001669    2.370464    0.548775    -3.656178    -6.290371    -5.487809    -13.446889    -1.780615    -0.004417    1.925861    
